<svg width="758" height="209" viewBox="0 0 758 209" fill="none" xmlns="http://www.w3.org/2000/svg">
<g clip-path="url(#clip0_747_1009)">
<rect width="758" height="209" fill="white"/>
<path fill-rule="evenodd" clip-rule="evenodd" d="M-28.2691 47.8332L-28.5367 47.1656L-28.7777 46.4895L-28.9905 45.8053L-29.1734 45.1135L-29.3249 44.4144L-29.4435 43.7087L-29.5282 42.9972L-29.5778 42.2805L-29.5917 41.5595L-29.5691 40.835L-29.5097 40.1081L-29.4133 39.3796L-29.2801 38.6506L-29.1103 37.9222L-28.9046 37.1954L-28.6637 36.4711L-28.3887 35.7505L-28.0808 35.0345L-27.7416 34.3241L-27.3728 33.6202L-26.976 32.9236L-26.5532 32.235L-26.1066 31.5552L-25.6381 30.8848L-25.1499 30.2243L-24.644 29.5741L-24.1223 28.9346L-23.5867 28.3062L-23.0388 27.689L-22.4804 27.0833L-21.9131 26.489L-21.339 25.9063L-20.76 25.335L-20.1783 24.775L-19.5962 24.226L-19.0159 23.6878L-18.4397 23.1597L-17.8703 22.6414L-17.3098 22.1321L-16.7609 21.631L-16.2259 21.1374L-15.7073 20.6502L-15.2074 20.1684L-14.7285 19.6909L-14.2727 19.2164L-13.8421 18.7437L-13.4387 18.2714L-13.0643 17.7981L-12.7203 17.3224L-12.4082 16.8428L-12.1293 16.3578L-11.8845 15.866L-11.6746 15.3657L-11.5003 14.8557L-11.3617 14.3344L-11.259 13.8005L-11.1921 13.2526L-11.1605 12.6895L-11.1636 12.1101L-11.2005 11.5133L-11.2701 10.8982L-11.371 10.2639L-11.5016 9.60978L-11.6601 8.9353L-11.8445 8.24006L-12.0527 7.52383L-12.2822 6.78657L-12.5306 6.02837L-12.7951 5.24952L-13.073 4.45048L-13.3614 3.63187L-13.6572 2.79452L-13.9574 1.9394L-14.259 1.06765L-14.5588 0.180598L-14.8536 -0.720278L-15.1403 -1.63337L-15.4159 -2.55691L-15.6773 -3.48901L-15.9216 -4.42767L-16.1459 -5.37075L-16.3476 -6.31607L-16.5239 -7.26133L-16.6725 -8.20419L-16.7911 -9.14228L-16.8775 -10.0732L-16.9298 -10.9944L-16.9463 -11.9036L-16.9255 -12.7983L-16.866 -13.6761L-16.7669 -14.5348L-16.6272 -15.3721L-16.4463 -16.1859L-16.2238 -16.974L-15.9595 -17.7346L-15.6536 -18.4659L-15.3062 -19.1661L-14.9178 -19.8337L-14.4892 -20.4674L-14.0211 -21.066L-13.5147 -21.6284L-12.9711 -22.1538L-12.3918 -22.6416L-11.7782 -23.0912L-11.132 -23.5023L-10.455 -23.8749L-9.74903 -24.2088L-9.01599 -24.5044L-8.25788 -24.7621L-7.47673 -24.9823L-6.67459 -25.1656L-5.85354 -25.313L-5.01563 -25.4252L-4.16287 -25.5033L-3.29727 -25.5483L-2.42074 -25.5614L-1.53518 -25.5437L-0.642358 -25.4965L0.25603 -25.4209L1.15835 -25.3181L2.0631 -25.1895L2.96888 -25.0361L3.8744 -24.859L4.77844 -24.6594L5.67993 -24.4381L6.57781 -24.1963L7.47095 -23.9353L8.35821 -23.6564L9.2384 -23.3614L10.1103 -23.0522L10.9726 -22.7309L11.8242 -22.3997L12.6642 -22.0605L13.4917 -21.7154L14.3059 -21.3663L15.1062 -21.0149L15.8921 -20.6632L16.6632 -20.3128L17.4192 -19.9655L18.1598 -19.6227L18.8849 -19.286L19.5945 -18.957L20.2886 -18.6369L20.9673 -18.3271L21.6308 -18.0288L22.2793 -17.7432L22.9132 -17.4714L23.5328 -17.2143L24.1386 -16.9729L24.7311 -16.7481L25.3107 -16.5405L25.8781 -16.351L26.4339 -16.18L26.9787 -16.0281L27.5132 -15.8956L28.0381 -15.7829L28.5542 -15.6903L29.0622 -15.6177L29.5629 -15.5653L30.057 -15.533L30.5454 -15.5207L31.0289 -15.5279L31.5081 -15.5546L31.984 -15.6001L32.4572 -15.6641L32.9285 -15.7458L33.3986 -15.8447L33.8683 -15.9599L34.3381 -16.0907L34.8089 -16.2362L35.2811 -16.3954L35.7553 -16.5675L36.2322 -16.7513L36.712 -16.9458L37.1955 -17.1498L37.6828 -17.3624L38.1745 -17.5824L38.6708 -17.8087L39.1719 -18.0401L39.6783 -18.2755L40.1899 -18.5139L40.707 -18.7542L41.2297 -18.9953L41.7581 -19.2363L42.2921 -19.4763L42.8319 -19.7144L43.3773 -19.9498L43.9284 -20.1816L44.4852 -20.4094L45.0474 -20.6323L45.615 -20.85L46.188 -21.0619L46.7663 -21.2677L47.3496 -21.4671L47.9381 -21.6599L48.5315 -21.846L49.1297 -22.0252L49.7328 -22.1976L50.3407 -22.3633L50.9534 -22.5223L51.5708 -22.675L52.193 -22.8214L52.8201 -22.9618L53.452 -23.0965L54.0889 -23.2258L54.7308 -23.35L55.378 -23.4694L56.0304 -23.5843L56.6882 -23.6948L57.3516 -23.8012L58.0207 -23.9035L58.6954 -24.0019L59.3761 -24.0963L60.0625 -24.1867L60.7549 -24.2728L61.4531 -24.3543L62.157 -24.4308L62.8665 -24.5018L63.5813 -24.5667L64.3011 -24.6247L65.0254 -24.6749L65.7537 -24.7162L66.4855 -24.7475L67.2198 -24.7676L67.9558 -24.775L68.6924 -24.7683L69.4286 -24.7461L70.1633 -24.707L70.8956 -24.6501L71.6246 -24.5748L72.3497 -24.4807L73.0703 -24.3679L73.786 -24.2363L74.4963 -24.0863L75.201 -23.9179L75.8999 -23.7317L76.5926 -23.528L77.279 -23.3072L77.959 -23.07L78.6325 -22.8168L79.2996 -22.5481L79.9601 -22.2645L80.6141 -21.9668L81.2617 -21.6552L81.903 -21.3306L82.5381 -20.9935L83.1672 -20.6444L83.7903 -20.2838L84.4076 -19.9124L85.0194 -19.5305L85.6258 -19.1387L86.2268 -18.7375L86.8228 -18.3271L87.4139 -17.908L88.0002 -17.4805L88.5818 -17.045L89.1589 -16.6017L89.7317 -16.151L90.3001 -15.6929L90.8643 -15.2278L91.4244 -14.7558L91.9803 -14.277L92.5321 -13.7915L93.0797 -13.2994L93.6231 -12.8008L94.1623 -12.2956L94.697 -11.7839L95.2271 -11.2657L95.7525 -10.7409L96.2728 -10.2094L96.7879 -9.67124L97.2975 -9.12627L97.8011 -8.5744L98.2985 -8.01555L98.7892 -7.44958L99.2728 -6.8764L99.7489 -6.2959L100.217 -5.70796L100.676 -5.1125L101.126 -4.50941L101.567 -3.89861L101.997 -3.28004L102.416 -2.65365L102.823 -2.01939L103.218 -1.37727L103.6 -0.727276L103.969 -0.0694494L104.323 0.596149L104.662 1.26943L104.986 1.9503L105.294 2.6386L105.584 3.33418L105.858 4.03681L106.113 4.74627L106.349 5.46232L106.566 6.18464L106.764 6.91295L106.941 7.64687L107.097 8.38604L107.233 9.13007L107.347 9.87853L107.439 10.631L107.509 11.387L107.557 12.146L107.582 12.9076L107.584 13.6712L107.564 14.4363L107.52 15.2023L107.454 15.9688L107.364 16.7352L107.251 17.5008L107.115 18.2652L106.956 19.0278L106.775 19.788L106.57 20.5453L106.343 21.2991L106.093 22.0489L105.821 22.794L105.528 23.534L105.212 24.2682L104.875 24.9963L104.518 25.7176L104.139 26.4316L103.741 27.1379L103.323 27.836L102.885 28.5253L102.429 29.2055L101.956 29.876L101.465 30.5366L100.96 31.1868L100.44 31.8263L99.9082 32.4549L99.3671 33.0725L98.8188 33.679L98.2657 34.2744L97.7101 34.859L97.1544 35.4329L96.6007 35.9964L96.051 36.55L95.5073 37.094L94.9716 37.629L94.4454 38.1557L93.9304 38.6745L93.428 39.1862L92.9396 39.6916L92.4663 40.1912L92.0093 40.686L91.5693 41.1767L91.1471 41.664L90.7435 42.1488L90.3588 42.632L89.9935 43.1141L89.6478 43.5962L89.3217 44.0789L89.0154 44.5629L88.7288 45.049L88.4615 45.538L88.2135 46.0303L87.9842 46.5268L87.7731 47.0279L87.5799 47.5343L87.4037 48.0463L87.2441 48.5646L87.1001 49.0895L86.971 49.6214L86.8559 50.1607L86.754 50.7075L86.6642 51.2622L86.5856 51.8248L86.5172 52.3956L86.4579 52.9746L86.4066 53.5617L86.3623 54.1571L86.3237 54.7605L86.2899 55.3718L86.2597 55.9909L86.232 56.6176L86.2056 57.2514L86.1793 57.8921L86.1522 58.5393L86.123 59.1926L86.0908 59.8514L86.0544 60.5154L86.0128 61.1838L85.965 61.8562L85.91 62.532L85.8469 63.2103L85.7747 63.8907L85.6927 64.5723L85.5999 65.2545L85.4957 65.9365L85.3792 66.6176L85.2499 67.297L85.1072 67.9739L84.9504 68.6477L84.7791 69.3174L84.5929 69.9824L84.3913 70.6419L84.1741 71.2952L83.9411 71.9416L83.692 72.5805L83.4267 73.2111L83.1451 73.8328L82.8473 74.445L82.5333 75.0473L82.2031 75.639L81.8571 76.2198L81.4953 76.7891L81.118 77.3465L80.7255 77.8918L80.3181 78.4245L79.8962 78.9445L79.4603 79.4514L79.0106 79.9452L78.5476 80.4255L78.0719 80.8923L77.5837 81.3455L77.0837 81.7849L76.5721 82.2104L76.0496 82.6219L75.5164 83.0193L74.973 83.4026L74.4198 83.7715L73.8572 84.1259L73.2854 84.4656L72.7048 84.7902L72.1156 85.0996L71.5181 85.3933L70.9125 85.6708L70.2989 85.9317L69.6777 86.1755L69.0491 86.4019L68.4134 86.6105L67.7711 86.8013L67.1226 86.9741L66.4683 87.1286L65.8086 87.2647L65.1438 87.382L64.4742 87.4801L63.8002 87.5585L63.122 87.6169L62.44 87.6549L61.7546 87.6721L61.0662 87.6681L60.3752 87.6426L59.6821 87.5955L58.9874 87.5265L58.2916 87.4357L57.5952 87.3231L56.8989 87.1888L56.2033 87.0332L55.5089 86.8567L54.8165 86.6597L54.1268 86.4429L53.4403 86.2071L52.7577 85.9531L52.0798 85.682L51.407 85.395L50.7401 85.0932L50.0796 84.778L49.426 84.4509L48.7799 84.1134L48.1417 83.7672L47.5119 83.414L46.8907 83.0556L46.2784 82.6939L45.6753 82.3307L45.0816 81.9679L44.4972 81.6075L43.9222 81.2515L43.3565 80.9018L42.7999 80.5603L42.2522 80.2289L41.7131 79.9094L41.1822 79.6037L40.6591 79.3134L40.1431 79.0402L39.6338 78.7857L39.1304 78.5512L38.6322 78.338L38.1385 78.1473L37.6484 77.9803L37.1611 77.8376L36.6758 77.7202L36.1914 77.6286L35.7072 77.5632L35.2221 77.5242L34.7352 77.5118L34.2457 77.5258L33.7525 77.566L33.2549 77.632L32.7519 77.7231L32.2429 77.8386L31.7269 77.9777L31.2033 78.1391L30.6714 78.3218L30.1308 78.5244L29.5807 78.7454L29.0209 78.9833L28.451 79.2363L27.8706 79.5028L27.2797 79.781L26.678 80.0688L26.0655 80.3645L25.4423 80.6661L24.8086 80.9716L24.1645 81.2792L23.5103 81.5867L22.8464 81.8925L22.1732 82.1946L21.4911 82.4913L20.8006 82.7809L20.1023 83.0618L19.3969 83.3324L18.6848 83.5915L17.9668 83.8378L17.2434 84.07L16.5154 84.2872L15.7834 84.4885L15.0479 84.6732L14.3096 84.8406L13.569 84.9904L12.8267 85.122L12.0832 85.2353L11.3391 85.33L10.5946 85.4061L9.85048 85.4635L9.107 85.5021L8.36469 85.5219L7.62405 85.5227L6.88565 85.5044L6.15007 85.4669L5.41792 85.4098L4.68991 85.3329L3.96686 85.2357L3.24969 85.1176L2.53932 84.9782L1.83667 84.817L1.14263 84.6336L0.45808 84.4279L-0.216186 84.1998L-0.87935 83.949L-1.53069 83.6758L-2.16955 83.3803L-2.79529 83.0627L-3.40737 82.7234L-4.00531 82.3628L-4.58872 81.9814L-5.15726 81.5798L-5.71071 81.1588L-6.24893 80.719L-6.77183 80.2613L-7.27944 79.7867L-7.77185 79.2959L-8.24925 78.79L-8.71191 78.27L-9.16018 77.737L-9.59449 77.1919L-10.0154 76.636L-10.4235 76.0702L-10.8194 75.4957L-11.2039 74.9135L-11.5778 74.3249L-11.942 73.7307L-12.2974 73.1322L-12.645 72.5302L-12.9858 71.9257L-13.3208 71.3197L-13.6511 70.7129L-13.9777 70.1063L-14.3019 69.5005L-14.6245 68.8962L-14.9468 68.2941L-15.2697 67.6945L-15.5943 67.098L-15.9214 66.5049L-16.2521 65.9154L-16.5871 65.3299L-16.9272 64.7482L-17.2731 64.1705L-17.6254 63.5967L-17.9845 63.0266L-18.3508 62.4601L-18.7246 61.8967L-19.1061 61.3361L-19.4951 60.7778L-19.8915 60.2215L-20.2952 59.6664L-20.7056 59.112L-21.1223 58.5577L-21.5445 58.0027L-21.9713 57.4463L-22.4018 56.8879L-22.8348 56.3268L-23.2691 55.7621L-23.7033 55.1932L-24.1359 54.6194L-24.5652 54.04L-24.9896 53.4545L-25.4073 52.8622L-25.8163 52.2627L-26.2146 51.6554L-26.6004 51.04L-26.9716 50.4161L-27.3261 49.7836L-27.6618 49.1423L-27.9768 48.4922L-28.2691 47.8332Z" fill="url(#paint0_linear_747_1009)"/>
<path fill-rule="evenodd" clip-rule="evenodd" d="M826.19 169.138L826.411 169.976L826.598 170.82L826.75 171.669L826.866 172.523L826.943 173.381L826.98 174.241L826.975 175.104L826.928 175.968L826.837 176.831L826.702 177.694L826.523 178.553L826.299 179.409L826.032 180.261L825.72 181.106L825.366 181.944L824.971 182.773L824.535 183.593L824.06 184.403L823.549 185.201L823.004 185.987L822.426 186.761L821.819 187.521L821.184 188.266L820.524 188.998L819.842 189.714L819.141 190.416L818.423 191.102L817.689 191.773L816.943 192.429L816.185 193.07L815.419 193.696L814.646 194.306L813.87 194.903L813.091 195.485L812.314 196.055L811.54 196.611L810.773 197.157L810.016 197.691L809.27 198.216L808.54 198.733L807.827 199.243L807.135 199.748L806.466 200.25L805.823 200.749L805.208 201.248L804.623 201.749L804.07 202.253L803.553 202.763L803.071 203.28L802.626 203.807L802.221 204.345L801.855 204.896L801.53 205.462L801.246 206.046L801.003 206.648L800.801 207.271L800.639 207.915L800.518 208.583L800.435 209.276L800.39 209.995L800.382 210.74L800.408 211.513L800.467 212.314L800.556 213.144L800.673 214.002L800.815 214.888L800.979 215.804L801.163 216.746L801.363 217.716L801.576 218.713L801.799 219.734L802.028 220.778L802.259 221.845L802.49 222.931L802.716 224.036L802.934 225.156L803.141 226.289L803.333 227.434L803.506 228.587L803.659 229.745L803.786 230.905L803.887 232.064L803.957 233.22L803.994 234.369L803.996 235.507L803.961 236.632L803.886 237.741L803.77 238.83L803.612 239.896L803.411 240.936L803.164 241.947L802.873 242.927L802.536 243.872L802.152 244.781L801.723 245.65L801.249 246.478L800.73 247.263L800.166 248.003L799.56 248.696L798.912 249.342L798.223 249.939L797.495 250.486L796.73 250.982L795.93 251.428L795.097 251.823L794.233 252.167L793.339 252.461L792.419 252.705L791.475 252.901L790.509 253.047L789.523 253.147L788.52 253.201L787.503 253.21L786.472 253.177L785.431 253.102L784.382 252.987L783.326 252.834L782.267 252.645L781.204 252.42L780.141 252.163L779.08 251.875L778.02 251.557L776.965 251.211L775.914 250.837L774.87 250.439L773.833 250.016L772.805 249.572L771.786 249.106L770.778 248.623L769.783 248.124L768.8 247.611L767.832 247.089L766.879 246.559L765.941 246.023L765.02 245.485L764.116 244.946L763.23 244.409L762.36 243.875L761.509 243.348L760.675 242.828L759.859 242.318L759.06 241.819L758.278 241.333L757.513 240.862L756.765 240.407L756.033 239.969L755.316 239.55L754.614 239.151L753.926 238.772L753.251 238.415L752.589 238.081L751.94 237.77L751.301 237.483L750.673 237.22L750.054 236.982L749.443 236.77L748.841 236.582L748.244 236.42L747.654 236.283L747.068 236.171L746.487 236.083L745.908 236.02L745.331 235.98L744.756 235.964L744.181 235.97L743.606 235.997L743.029 236.046L742.451 236.113L741.87 236.2L741.286 236.304L740.698 236.424L740.106 236.559L739.509 236.707L738.906 236.868L738.298 237.04L737.684 237.221L737.064 237.411L736.437 237.608L735.804 237.81L735.164 238.015L734.517 238.224L733.864 238.434L733.203 238.645L732.536 238.854L731.862 239.061L731.182 239.265L730.495 239.465L729.802 239.66L729.103 239.85L728.398 240.032L727.687 240.208L726.971 240.376L726.25 240.536L725.523 240.687L724.791 240.83L724.055 240.964L723.313 241.089L722.567 241.205L721.816 241.313L721.06 241.412L720.3 241.502L719.534 241.584L718.764 241.659L717.989 241.726L717.209 241.786L716.423 241.838L715.632 241.885L714.836 241.925L714.033 241.959L713.225 241.987L712.41 242.01L711.589 242.027L710.762 242.039L709.928 242.045L709.088 242.044L708.242 242.038L707.389 242.025L706.531 242.004L705.667 241.975L704.799 241.937L703.926 241.889L703.049 241.83L702.17 241.759L701.29 241.673L700.41 241.573L699.53 241.455L698.654 241.319L697.782 241.163L696.915 240.986L696.056 240.787L695.203 240.567L694.359 240.325L693.523 240.061L692.697 239.776L691.88 239.47L691.073 239.144L690.275 238.797L689.488 238.431L688.711 238.047L687.944 237.644L687.187 237.224L686.44 236.786L685.703 236.333L684.975 235.865L684.257 235.381L683.549 234.884L682.849 234.373L682.158 233.85L681.476 233.314L680.802 232.767L680.135 232.208L679.477 231.639L678.826 231.06L678.182 230.472L677.545 229.874L676.915 229.267L676.291 228.651L675.674 228.027L675.063 227.395L674.458 226.756L673.859 226.108L673.266 225.454L672.679 224.791L672.098 224.122L671.523 223.445L670.954 222.761L670.391 222.07L669.835 221.372L669.285 220.667L668.743 219.955L668.207 219.235L667.68 218.508L667.16 217.773L666.649 217.032L666.147 216.282L665.654 215.526L665.172 214.761L664.7 213.989L664.24 213.209L663.792 212.422L663.357 211.626L662.935 210.823L662.528 210.012L662.135 209.194L661.759 208.368L661.399 207.534L661.056 206.693L660.732 205.845L660.427 204.99L660.141 204.129L659.876 203.26L659.633 202.386L659.411 201.506L659.212 200.62L659.036 199.729L658.884 198.834L658.756 197.934L658.654 197.031L658.577 196.125L658.526 195.216L658.501 194.304L658.503 193.391L658.531 192.478L658.587 191.564L658.671 190.65L658.781 189.737L658.92 188.826L659.086 187.917L659.28 187.011L659.501 186.109L659.75 185.211L660.026 184.318L660.329 183.43L660.659 182.549L661.016 181.675L661.4 180.808L661.81 179.949L662.246 179.099L662.707 178.259L663.193 177.428L663.704 176.609L664.239 175.8L664.797 175.003L665.378 174.219L665.982 173.447L666.607 172.688L667.253 171.943L667.918 171.213L668.603 170.496L669.304 169.795L670.02 169.108L670.749 168.436L671.487 167.779L672.233 167.136L672.982 166.506L673.733 165.891L674.483 165.288L675.228 164.697L675.967 164.117L676.698 163.548L677.418 162.988L678.125 162.438L678.817 161.894L679.494 161.358L680.152 160.826L680.792 160.3L681.412 159.777L682.011 159.256L682.588 158.736L683.142 158.217L683.674 157.697L684.182 157.175L684.667 156.651L685.128 156.123L685.566 155.59L685.981 155.052L686.373 154.507L686.743 153.956L687.091 153.397L687.417 152.83L687.724 152.253L688.01 151.668L688.278 151.072L688.528 150.466L688.762 149.85L688.98 149.223L689.183 148.585L689.373 147.935L689.55 147.275L689.717 146.603L689.874 145.92L690.023 145.226L690.164 144.521L690.3 143.806L690.432 143.081L690.56 142.345L690.686 141.601L690.812 140.847L690.939 140.086L691.068 139.316L691.2 138.54L691.336 137.758L691.478 136.97L691.628 136.177L691.785 135.381L691.951 134.582L692.128 133.781L692.315 132.979L692.515 132.176L692.727 131.375L692.953 130.576L693.193 129.779L693.449 128.987L693.72 128.199L694.008 127.417L694.312 126.643L694.634 125.876L694.973 125.118L695.33 124.369L695.704 123.632L696.097 122.906L696.508 122.192L696.937 121.491L697.384 120.803L697.849 120.131L698.331 119.473L698.831 118.83L699.348 118.204L699.882 117.594L700.432 117.001L700.998 116.425L701.579 115.866L702.176 115.326L702.787 114.803L703.411 114.298L704.049 113.811L704.7 113.342L705.363 112.891L706.037 112.459L706.723 112.045L707.419 111.649L708.125 111.272L708.841 110.914L709.566 110.574L710.3 110.254L711.042 109.952L711.792 109.67L712.55 109.408L713.315 109.167L714.087 108.946L714.865 108.747L715.65 108.57L716.441 108.416L717.236 108.283L718.037 108.173L718.842 108.086L719.65 108.022L720.462 107.981L721.277 107.963L722.094 107.97L722.913 108.001L723.733 108.057L724.555 108.138L725.377 108.246L726.199 108.379L727.02 108.538L727.84 108.724L728.658 108.936L729.473 109.174L730.285 109.438L731.093 109.728L731.896 110.042L732.694 110.381L733.486 110.742L734.271 111.126L735.049 111.531L735.819 111.956L736.58 112.399L737.332 112.859L738.074 113.334L738.806 113.822L739.528 114.322L740.239 114.83L740.939 115.346L741.628 115.867L742.306 116.39L742.972 116.914L743.628 117.436L744.272 117.953L744.906 118.464L745.53 118.966L746.144 119.457L746.75 119.935L747.346 120.396L747.935 120.841L748.517 121.265L749.093 121.669L749.663 122.049L750.23 122.404L750.793 122.733L751.355 123.034L751.916 123.306L752.477 123.549L753.039 123.762L753.604 123.944L754.173 124.094L754.747 124.213L755.327 124.3L755.914 124.356L756.509 124.381L757.113 124.377L757.728 124.343L758.353 124.28L758.991 124.191L759.64 124.076L760.303 123.937L760.979 123.775L761.669 123.593L762.374 123.392L763.092 123.175L763.825 122.943L764.573 122.698L765.335 122.444L766.11 122.182L766.9 121.914L767.703 121.643L768.518 121.372L769.345 121.102L770.184 120.835L771.034 120.574L771.893 120.321L772.761 120.078L773.637 119.846L774.52 119.628L775.41 119.424L776.304 119.237L777.203 119.067L778.105 118.916L779.01 118.784L779.916 118.673L780.823 118.583L781.73 118.514L782.637 118.468L783.542 118.443L784.445 118.44L785.346 118.46L786.244 118.502L787.138 118.567L788.028 118.654L788.913 118.763L789.792 118.895L790.666 119.049L791.532 119.226L792.39 119.427L793.24 119.65L794.079 119.898L794.907 120.17L795.723 120.468L796.525 120.79L797.312 121.138L798.084 121.511L798.839 121.909L799.577 122.332L800.296 122.78L800.996 123.253L801.677 123.75L802.338 124.27L802.978 124.812L803.598 125.377L804.196 125.962L804.774 126.568L805.331 127.192L805.867 127.835L806.382 128.495L806.877 129.17L807.352 129.86L807.809 130.564L808.247 131.28L808.667 132.007L809.07 132.743L809.458 133.489L809.83 134.242L810.19 135.001L810.536 135.765L810.872 136.533L811.198 137.304L811.515 138.077L811.825 138.851L812.129 139.625L812.429 140.398L812.726 141.17L813.022 141.941L813.317 142.708L813.614 143.472L813.913 144.233L814.216 144.991L814.523 145.744L814.836 146.494L815.156 147.239L815.483 147.981L815.819 148.719L816.163 149.454L816.516 150.185L816.879 150.914L817.251 151.641L817.633 152.366L818.024 153.089L818.424 153.813L818.832 154.536L819.247 155.261L819.669 155.987L820.096 156.715L820.527 157.446L820.961 158.181L821.396 158.92L821.83 159.665L822.262 160.415L822.689 161.171L823.108 161.934L823.519 162.704L823.919 163.481L824.304 164.266L824.674 165.058L825.024 165.859L825.354 166.668L825.659 167.484L825.939 168.308L826.19 169.138Z" fill="url(#paint1_linear_747_1009)"/>
<path d="M368.96 32.3148C355.835 34.044 343.73 39.2316 332.93 47.6791C329.982 50.0036 323.008 57.1471 320.712 60.2086C314.561 68.4294 310.394 76.9903 307.984 86.43C306.283 93.0349 306 95.6996 306 104.572C306.028 113.105 306.34 116.081 308.013 122.573C308.92 125.975 309.458 127.08 310.649 127.874C313.37 129.716 316.942 128.412 317.793 125.323C318.076 124.274 317.991 123.65 317.084 120.022C315.723 114.437 315.213 110.213 315.213 104.204C315.213 93.9987 317.339 85.0409 321.903 76.0832C330.152 59.8118 344.467 48.1043 361.929 43.3136C370.519 40.9608 380.667 40.5072 389.625 42.0947C396.598 43.3136 404.28 46.205 410.829 50.0886L412.756 51.2225L407.937 56.0699C405.301 58.7346 403.005 61.2858 402.835 61.7111C402.041 63.7804 402.863 66.4734 404.592 67.5506C405.556 68.1459 405.811 68.1459 420.722 68.1459H435.888L436.823 67.4939C437.333 67.1538 438.042 66.5018 438.354 66.0765C438.949 65.2828 438.949 65.056 438.949 50.0036C438.949 34.9511 438.949 34.7243 438.354 33.9306C437.277 32.4849 436.058 31.8613 434.272 31.8613C432.174 31.8613 431.806 32.1164 425.059 38.9198C422.111 41.8962 419.588 44.3341 419.503 44.3341C419.39 44.3341 418.171 43.6254 416.81 42.7467C408.844 37.7292 400.17 34.4409 390.192 32.655C385.94 31.918 373.495 31.6912 368.96 32.3148Z" fill="#D8D7DD" fill-opacity="0.38"/>
<path d="M371.794 68.5998C367.258 69.4219 362.127 71.5196 357.875 74.326C355.324 75.9985 349.995 81.3278 348.294 83.9074C344.07 90.3423 342.143 96.7488 342.143 104.431C342.143 112.113 344.07 118.52 348.294 124.954C349.995 127.506 355.296 132.807 357.875 134.536C364.339 138.788 370.717 140.716 378.427 140.716C386.109 140.716 392.516 138.788 398.951 134.564C401.53 132.863 406.86 127.534 408.532 124.983C412.813 118.491 414.712 112.113 414.712 104.431C414.712 96.7488 412.784 90.3423 408.56 83.9074C406.775 81.1861 401.502 75.9702 398.696 74.1276C394.387 71.3212 389.653 69.4219 384.749 68.5715C381.687 68.0329 374.827 68.0612 371.794 68.5998ZM381.432 81.3278C382.197 81.7814 382.963 82.5751 383.445 83.3972L384.238 84.7295L384.38 93.9707L384.522 103.184L389.766 107.946C395.577 113.19 396.286 114.126 396.286 116.535C396.286 120.674 392.119 123.509 388.32 121.921C386.79 121.298 373.778 109.76 373.155 108.485C372.644 107.492 372.616 106.614 372.616 96.0685V84.7295L373.381 83.3972C375.111 80.5057 378.512 79.627 381.432 81.3278Z" fill="#D8D7DD" fill-opacity="0.38"/>
<path d="M441.447 80.6473C440.171 81.2709 439.207 82.5465 438.924 83.9356C438.811 84.5025 439.122 86.2884 439.774 88.868C440.313 91.1074 440.965 94.4524 441.22 96.295C441.787 100.661 441.759 108.258 441.192 112.708C437.96 137.739 419.534 158.801 394.929 165.548C386.34 167.9 376.191 168.354 367.233 166.767C360.26 165.548 352.578 162.656 346.03 158.773L344.102 157.639L348.921 152.791C351.557 150.127 353.854 147.575 354.024 147.15C354.817 145.081 353.995 142.388 352.238 141.311C351.274 140.715 351.161 140.715 335.796 140.772L320.347 140.857L319.326 141.849C318.788 142.388 318.193 143.267 318.022 143.834C317.852 144.486 317.824 149.758 317.966 159.481C318.193 173.712 318.221 174.137 318.788 174.931C319.865 176.376 321.084 177 322.87 177C325.024 177 325.535 176.631 331.941 169.97C334.804 166.965 337.242 164.527 337.355 164.527C337.469 164.527 338.688 165.236 340.048 166.115C346.285 170.055 353.797 173.23 361.139 175.044C367.233 176.546 369.955 176.83 378.289 176.858C386.992 176.858 389.174 176.631 396.006 174.959C419.081 169.375 438.414 151.998 446.72 129.405C449.696 121.326 451 113.757 451 104.629C451 97.0037 450.121 90.3704 448.335 84.5025C447.57 81.9796 446.975 81.2142 445.274 80.4772C443.856 79.9102 442.864 79.9386 441.447 80.6473Z" fill="#D8D7DD" fill-opacity="0.38"/>
<path d="M279.009 131.189C279.009 133.026 278.772 134.702 278.3 136.216C277.827 137.731 277.118 139.025 276.173 140.1C275.228 141.174 274.035 141.985 272.596 142.533L278.203 148.607H273.047L268.616 143.306C268.508 143.306 268.401 143.306 268.293 143.306C268.197 143.317 268.1 143.322 268.003 143.322C266.124 143.322 264.491 143.032 263.105 142.452C261.73 141.872 260.586 141.045 259.673 139.971C258.771 138.896 258.094 137.613 257.643 136.12C257.191 134.626 256.966 132.972 256.966 131.157C256.966 128.729 257.363 126.613 258.158 124.808C258.964 122.993 260.183 121.585 261.816 120.586C263.459 119.577 265.533 119.072 268.036 119.072C270.485 119.072 272.521 119.571 274.143 120.57C275.765 121.569 276.979 122.977 277.784 124.792C278.601 126.597 279.009 128.729 279.009 131.189ZM261.026 131.189C261.026 133.004 261.273 134.578 261.768 135.91C262.262 137.231 263.019 138.252 264.04 138.972C265.071 139.681 266.392 140.035 268.003 140.035C269.625 140.035 270.947 139.681 271.967 138.972C272.988 138.252 273.74 137.231 274.223 135.91C274.707 134.578 274.948 133.004 274.948 131.189C274.948 128.428 274.395 126.269 273.289 124.711C272.193 123.143 270.442 122.359 268.036 122.359C266.424 122.359 265.098 122.713 264.056 123.422C263.024 124.131 262.262 125.146 261.768 126.468C261.273 127.778 261.026 129.352 261.026 131.189ZM302.566 119.442V134.686C302.566 136.329 302.217 137.801 301.519 139.101C300.832 140.4 299.79 141.432 298.393 142.194C296.997 142.946 295.24 143.322 293.124 143.322C290.105 143.322 287.807 142.533 286.228 140.954C284.659 139.364 283.875 137.253 283.875 134.621V119.442H287.742V134.283C287.742 136.249 288.204 137.699 289.128 138.633C290.052 139.568 291.432 140.035 293.269 140.035C294.537 140.035 295.568 139.815 296.363 139.375C297.168 138.923 297.759 138.268 298.135 137.409C298.522 136.539 298.715 135.491 298.715 134.267V119.442H302.566ZM321.935 143H308.593V119.442H321.935V122.697H312.46V129.094H321.338V132.333H312.46V139.729H321.935V143ZM345.524 119.442V134.686C345.524 136.329 345.175 137.801 344.477 139.101C343.79 140.4 342.748 141.432 341.351 142.194C339.955 142.946 338.198 143.322 336.082 143.322C333.063 143.322 330.765 142.533 329.186 140.954C327.617 139.364 326.833 137.253 326.833 134.621V119.442H330.7V134.283C330.7 136.249 331.162 137.699 332.086 138.633C333.01 139.568 334.39 140.035 336.227 140.035C337.495 140.035 338.526 139.815 339.321 139.375C340.126 138.923 340.717 138.268 341.093 137.409C341.48 136.539 341.673 135.491 341.673 134.267V119.442H345.524ZM364.893 143H351.551V119.442H364.893V122.697H355.418V129.094H364.296V132.333H355.418V139.729H364.893V143ZM392.156 136.587C392.156 137.983 391.812 139.187 391.125 140.196C390.448 141.206 389.471 141.979 388.192 142.517C386.925 143.054 385.41 143.322 383.648 143.322C382.789 143.322 381.967 143.274 381.183 143.177C380.399 143.081 379.658 142.941 378.959 142.758C378.272 142.565 377.644 142.334 377.074 142.065V138.424C378.03 138.843 379.099 139.224 380.281 139.568C381.462 139.901 382.666 140.067 383.89 140.067C384.889 140.067 385.716 139.938 386.372 139.681C387.038 139.412 387.532 139.036 387.854 138.553C388.176 138.059 388.337 137.484 388.337 136.829C388.337 136.13 388.149 135.54 387.773 135.056C387.397 134.573 386.828 134.132 386.065 133.735C385.313 133.327 384.368 132.892 383.229 132.43C382.456 132.118 381.715 131.764 381.006 131.366C380.308 130.969 379.685 130.501 379.137 129.964C378.589 129.427 378.154 128.793 377.832 128.063C377.52 127.322 377.364 126.452 377.364 125.453C377.364 124.121 377.681 122.982 378.315 122.037C378.959 121.091 379.862 120.366 381.022 119.861C382.193 119.356 383.557 119.104 385.115 119.104C386.35 119.104 387.51 119.233 388.595 119.491C389.691 119.749 390.765 120.114 391.818 120.586L390.593 123.696C389.626 123.299 388.687 122.982 387.773 122.746C386.871 122.509 385.947 122.391 385.002 122.391C384.186 122.391 383.493 122.515 382.923 122.762C382.354 123.009 381.919 123.358 381.618 123.809C381.328 124.25 381.183 124.776 381.183 125.388C381.183 126.076 381.35 126.656 381.683 127.128C382.026 127.59 382.553 128.015 383.262 128.401C383.981 128.788 384.905 129.218 386.033 129.69C387.333 130.228 388.434 130.792 389.336 131.382C390.25 131.973 390.948 132.682 391.431 133.509C391.915 134.326 392.156 135.352 392.156 136.587ZM403.371 130.19L408.962 119.442H413.136L405.305 133.848V143H401.454V133.993L393.606 119.442H397.812L403.371 130.19ZM429.829 136.587C429.829 137.983 429.485 139.187 428.798 140.196C428.121 141.206 427.144 141.979 425.865 142.517C424.598 143.054 423.083 143.322 421.321 143.322C420.462 143.322 419.64 143.274 418.856 143.177C418.072 143.081 417.331 142.941 416.632 142.758C415.945 142.565 415.316 142.334 414.747 142.065V138.424C415.703 138.843 416.772 139.224 417.954 139.568C419.135 139.901 420.338 140.067 421.563 140.067C422.562 140.067 423.389 139.938 424.044 139.681C424.71 139.412 425.205 139.036 425.527 138.553C425.849 138.059 426.01 137.484 426.01 136.829C426.01 136.13 425.822 135.54 425.446 135.056C425.07 134.573 424.501 134.132 423.738 133.735C422.986 133.327 422.041 132.892 420.902 132.43C420.129 132.118 419.388 131.764 418.679 131.366C417.98 130.969 417.357 130.501 416.81 129.964C416.262 129.427 415.827 128.793 415.504 128.063C415.193 127.322 415.037 126.452 415.037 125.453C415.037 124.121 415.354 122.982 415.988 122.037C416.632 121.091 417.535 120.366 418.695 119.861C419.866 119.356 421.23 119.104 422.788 119.104C424.023 119.104 425.183 119.233 426.268 119.491C427.364 119.749 428.438 120.114 429.491 120.586L428.266 123.696C427.299 123.299 426.359 122.982 425.446 122.746C424.544 122.509 423.62 122.391 422.675 122.391C421.858 122.391 421.166 122.515 420.596 122.762C420.027 123.009 419.592 123.358 419.291 123.809C419.001 124.25 418.856 124.776 418.856 125.388C418.856 126.076 419.022 126.656 419.355 127.128C419.699 127.59 420.226 128.015 420.935 128.401C421.654 128.788 422.578 129.218 423.706 129.69C425.006 130.228 426.107 130.792 427.009 131.382C427.922 131.973 428.621 132.682 429.104 133.509C429.587 134.326 429.829 135.352 429.829 136.587ZM442.542 143H438.659V122.729H431.763V119.442H449.423V122.729H442.542V143ZM466.374 143H453.032V119.442H466.374V122.697H456.899V129.094H465.778V132.333H456.899V139.729H466.374V143ZM481.633 143L474.85 123.326H474.705C474.737 123.766 474.774 124.368 474.817 125.13C474.86 125.893 474.898 126.709 474.93 127.58C474.962 128.45 474.979 129.282 474.979 130.077V143H471.466V119.442H476.896L483.422 138.247H483.519L490.27 119.442H495.684V143H491.994V129.884C491.994 129.164 492.005 128.385 492.026 127.547C492.059 126.709 492.091 125.915 492.123 125.163C492.166 124.411 492.198 123.809 492.22 123.358H492.091L485.049 143H481.633Z" fill="#43B1E3"/>
<path d="M258.06 84.0415C258.06 86.187 257.799 88.1421 257.279 89.9067C256.771 91.6587 255.971 93.1694 254.879 94.439C253.788 95.7085 252.385 96.686 250.671 97.3716C248.957 98.0444 246.907 98.3809 244.52 98.3809C242.184 98.3809 240.159 98.0444 238.445 97.3716C236.744 96.686 235.341 95.7148 234.237 94.458C233.132 93.1885 232.313 91.6714 231.78 89.9067C231.247 88.1421 230.98 86.1743 230.98 84.0034C230.98 81.1089 231.457 78.5952 232.409 76.4624C233.374 74.3169 234.859 72.6602 236.865 71.4922C238.871 70.3115 241.435 69.7212 244.558 69.7212C247.732 69.7212 250.309 70.3115 252.29 71.4922C254.283 72.6729 255.743 74.3359 256.669 76.4814C257.596 78.627 258.06 81.147 258.06 84.0415ZM238.902 84.0415C238.902 85.7173 239.093 87.1582 239.474 88.3643C239.854 89.5703 240.458 90.4971 241.283 91.1445C242.108 91.792 243.187 92.1157 244.52 92.1157C245.904 92.1157 247.002 91.792 247.814 91.1445C248.64 90.4971 249.23 89.5703 249.585 88.3643C249.954 87.1582 250.138 85.7173 250.138 84.0415C250.138 81.5278 249.719 79.541 248.881 78.0811C248.043 76.6211 246.602 75.8911 244.558 75.8911C243.2 75.8911 242.102 76.2212 241.264 76.8813C240.438 77.5415 239.835 78.481 239.455 79.6997C239.086 80.9185 238.902 82.3657 238.902 84.0415ZM289.595 98H279.73L269.562 78.3857H269.39C269.454 78.9824 269.511 79.6997 269.562 80.5376C269.612 81.3755 269.657 82.2324 269.695 83.1084C269.733 83.9717 269.752 84.7524 269.752 85.4507V98H263.087V70.1592H272.913L283.044 89.5068H283.158C283.12 88.8975 283.082 88.1929 283.044 87.3931C283.006 86.5806 282.968 85.7617 282.93 84.9365C282.904 84.1113 282.892 83.3813 282.892 82.7466V70.1592H289.595V98ZM295.612 98V70.1592H303.134V91.9253H313.855V98H295.612ZM318.312 98V70.1592H325.872V98H318.312ZM358.416 98H348.552L338.383 78.3857H338.211C338.275 78.9824 338.332 79.6997 338.383 80.5376C338.434 81.3755 338.478 82.2324 338.516 83.1084C338.554 83.9717 338.573 84.7524 338.573 85.4507V98H331.908V70.1592H341.734L351.865 89.5068H351.979C351.941 88.8975 351.903 88.1929 351.865 87.3931C351.827 86.5806 351.789 85.7617 351.751 84.9365C351.726 84.1113 351.713 83.3813 351.713 82.7466V70.1592H358.416V98ZM380.963 98H364.434V70.1592H380.963V76.1958H371.956V80.5757H380.296V86.6123H371.956V91.8682H380.963V98ZM408.251 98H400.729V76.3101H393.931V70.1592H415.031V76.3101H408.251V98ZM445.062 84.0415C445.062 86.187 444.801 88.1421 444.281 89.9067C443.773 91.6587 442.973 93.1694 441.881 94.439C440.79 95.7085 439.387 96.686 437.673 97.3716C435.959 98.0444 433.909 98.3809 431.522 98.3809C429.186 98.3809 427.161 98.0444 425.447 97.3716C423.746 96.686 422.343 95.7148 421.239 94.458C420.134 93.1885 419.315 91.6714 418.782 89.9067C418.249 88.1421 417.982 86.1743 417.982 84.0034C417.982 81.1089 418.458 78.5952 419.411 76.4624C420.375 74.3169 421.861 72.6602 423.867 71.4922C425.873 70.3115 428.437 69.7212 431.56 69.7212C434.734 69.7212 437.311 70.3115 439.292 71.4922C441.285 72.6729 442.745 74.3359 443.671 76.4814C444.598 78.627 445.062 81.147 445.062 84.0415ZM425.904 84.0415C425.904 85.7173 426.095 87.1582 426.476 88.3643C426.856 89.5703 427.459 90.4971 428.285 91.1445C429.11 91.792 430.189 92.1157 431.522 92.1157C432.906 92.1157 434.004 91.792 434.816 91.1445C435.642 90.4971 436.232 89.5703 436.587 88.3643C436.956 87.1582 437.14 85.7173 437.14 84.0415C437.14 81.5278 436.721 79.541 435.883 78.0811C435.045 76.6211 433.604 75.8911 431.56 75.8911C430.202 75.8911 429.104 76.2212 428.266 76.8813C427.44 77.5415 426.837 78.481 426.457 79.6997C426.088 80.9185 425.904 82.3657 425.904 84.0415ZM473.874 98H465.38L459.877 87.355L457.649 88.688V98H450.089V70.1592H457.649V82.2515C457.966 81.6421 458.328 81.0327 458.734 80.4233C459.153 79.814 459.56 79.2363 459.953 78.6904L465.799 70.1592H474.026L465.247 82.6323L473.874 98ZM493.431 98H476.901V70.1592H493.431V76.1958H484.423V80.5757H492.764V86.6123H484.423V91.8682H493.431V98ZM524.813 98H514.949L504.78 78.3857H504.609C504.672 78.9824 504.729 79.6997 504.78 80.5376C504.831 81.3755 504.875 82.2324 504.914 83.1084C504.952 83.9717 504.971 84.7524 504.971 85.4507V98H498.306V70.1592H508.132L518.263 89.5068H518.377C518.339 88.8975 518.301 88.1929 518.263 87.3931C518.225 86.5806 518.187 85.7617 518.148 84.9365C518.123 84.1113 518.11 83.3813 518.11 82.7466V70.1592H524.813V98Z" fill="#43B1E3"/>
</g>
<defs>
<linearGradient id="paint0_linear_747_1009" x1="1180.79" y1="580.065" x2="1123.05" y2="700.182" gradientUnits="userSpaceOnUse">
<stop stop-color="#44B1E3"/>
<stop offset="1" stop-color="white"/>
</linearGradient>
<linearGradient id="paint1_linear_747_1009" x1="-539.235" y1="-646.747" x2="-452.374" y2="-781.675" gradientUnits="userSpaceOnUse">
<stop stop-color="#44B1E3"/>
<stop offset="1" stop-color="white"/>
</linearGradient>
<clipPath id="clip0_747_1009">
<rect width="758" height="209" fill="white"/>
</clipPath>
</defs>
</svg>
