<svg width="32" height="29" viewBox="0 0 32 29" fill="none" xmlns="http://www.w3.org/2000/svg">
<mask id="path-1-inside-1_384_1127" fill="white">
<path d="M14.8188 0.113821C14.275 0.252958 13.8063 0.458639 13.3938 0.724815C13.0375 0.954697 0.21875 13.3198 0.0875 13.5557C0.0375 13.6465 0 13.8642 0 14.0397C0 14.6265 0.38125 14.9955 0.9875 14.9955C1.4125 14.9955 1.5625 14.9108 2.0625 14.4208L2.46875 14.0215L2.5 20.5187L2.53125 27.0097L2.7625 27.4634C3.05625 28.0381 3.575 28.5342 4.16875 28.8064L4.59375 29H16H27.4062L27.8313 28.8064C28.425 28.5342 28.9438 28.0381 29.2375 27.4634L29.4688 27.0097L29.5 20.5187L29.5312 14.0215L29.9375 14.4208C30.4375 14.9108 30.5875 14.9955 31.0125 14.9955C31.6187 14.9955 32 14.6265 32 14.0397C32 13.8642 31.9625 13.6465 31.9125 13.5557C31.8625 13.465 28.8875 10.5612 25.3 7.10095C18.2375 0.277157 18.5188 0.525185 17.4688 0.192463C16.775 -0.0253162 15.5063 -0.0676632 14.8188 0.113821ZM17.0625 2.19484C17.4438 2.36422 17.7688 2.66064 22.4875 7.21589L27.5 12.0615L27.4875 19.2725C27.4688 26.4471 27.4688 26.4834 27.3375 26.6468C27.2688 26.7375 27.1313 26.8706 27.0375 26.9371C26.8687 27.0581 26.7812 27.0642 23.9312 27.0823L21 27.1005V23.0231C21 19.1212 20.9937 18.9216 20.875 18.5526C20.575 17.6089 19.8 16.8587 18.8188 16.5684C18.4563 16.4595 18.2313 16.4474 16 16.4474C13.7688 16.4474 13.5437 16.4595 13.1813 16.5684C12.2 16.8587 11.425 17.6089 11.125 18.5526C11.0063 18.9216 11 19.1212 11 23.0231V27.1005L8.06875 27.0823C5.21875 27.0642 5.13125 27.0581 4.9625 26.9371C4.86875 26.8706 4.73125 26.7375 4.6625 26.6468C4.53125 26.4834 4.53125 26.4471 4.5125 19.2725L4.5 12.0615L9.41875 7.29453C12.1313 4.67512 14.4375 2.47311 14.5563 2.40052C15.0875 2.0799 15.4375 1.9831 16.0625 2.00125C16.5562 2.0194 16.725 2.04965 17.0625 2.19484ZM18.35 18.5163C18.65 18.6736 18.8563 18.9518 18.9312 19.2906C18.975 19.4963 19 20.8695 19 23.3438V27.0944H16H13V23.3256C13.0063 21.2567 13.0312 19.4419 13.0563 19.2967C13.1438 18.8793 13.4625 18.5405 13.8813 18.4437C14 18.4134 15.0063 18.3953 16.125 18.4013C17.9125 18.4134 18.1812 18.4255 18.35 18.5163Z"/>
</mask>
<path d="M14.8188 0.113821L15.5845 3.01446L15.5735 3.01736L15.5624 3.02018L14.8188 0.113821ZM0.0875 13.5557L-2.54004 12.1079L-2.53413 12.0973L0.0875 13.5557ZM2.0625 14.4208L4.16535 16.5604L4.1623 16.5634L2.0625 14.4208ZM2.46875 14.0215L0.365905 11.8819L5.43453 6.90042L5.46872 14.0071L2.46875 14.0215ZM2.5 20.5187L-0.499965 20.5331L-0.499965 20.5331L2.5 20.5187ZM2.53125 27.0097L-0.141595 28.372L-0.465284 27.737L-0.468715 27.0242L2.53125 27.0097ZM2.7625 27.4634L0.0912225 28.8288L0.0896554 28.8258L2.7625 27.4634ZM4.16875 28.8064L2.9252 31.5366L2.91844 31.5335L4.16875 28.8064ZM4.59375 29V32H3.94269L3.35021 31.7301L4.59375 29ZM27.4062 29L28.6498 31.7301L28.0573 32H27.4062V29ZM27.8313 28.8064L29.0816 31.5335L29.0748 31.5365L27.8313 28.8064ZM29.2375 27.4634L31.9103 28.8258L31.9088 28.8288L29.2375 27.4634ZM29.4688 27.0097L32.4687 27.0242L32.4653 27.737L32.1416 28.372L29.4688 27.0097ZM29.5 20.5187L32.5 20.5331V20.5331L29.5 20.5187ZM29.5312 14.0215L26.5313 14.0071L26.5655 6.90042L31.6341 11.8819L29.5312 14.0215ZM29.9375 14.4208L27.8377 16.5634L27.8347 16.5604L29.9375 14.4208ZM25.3 7.10095L23.2173 9.26021L23.2155 9.25842L25.3 7.10095ZM17.4688 0.192463L18.3673 -2.66983L18.375 -2.66739L17.4688 0.192463ZM17.0625 2.19484L18.248 -0.560987L18.2643 -0.55397L18.2806 -0.546759L17.0625 2.19484ZM22.4875 7.21589L24.5711 5.0575L24.5726 5.05897L22.4875 7.21589ZM27.5 12.0615L29.5851 9.90458L30.5022 10.7911L30.5 12.0667L27.5 12.0615ZM27.4875 19.2725L30.4875 19.2777L30.4875 19.2803L27.4875 19.2725ZM27.3375 26.6468L24.9463 24.8351L24.9722 24.801L24.999 24.7676L27.3375 26.6468ZM27.0375 26.9371L25.2894 24.499L25.2952 24.4949L25.3011 24.4908L27.0375 26.9371ZM23.9312 27.0823L23.9504 30.0823L23.9498 30.0823L23.9312 27.0823ZM21 27.1005L21.0186 30.1004L18 30.1191V27.1005H21ZM20.875 18.5526L18.0192 19.4716L18.016 19.4614L20.875 18.5526ZM18.8188 16.5684L17.9675 19.4451L17.9557 19.4415L18.8188 16.5684ZM13.1813 16.5684L14.0443 19.4416L14.0325 19.445L13.1813 16.5684ZM11.125 18.5526L13.984 19.4614L13.9808 19.4716L11.125 18.5526ZM11 27.1005H14V30.1191L10.9814 30.1004L11 27.1005ZM8.06875 27.0823L8.05018 30.0823L8.04965 30.0823L8.06875 27.0823ZM4.9625 26.9371L6.69895 24.4908L6.70476 24.4949L6.71055 24.499L4.9625 26.9371ZM4.6625 26.6468L7.00104 24.7676L7.02785 24.801L7.0537 24.8351L4.6625 26.6468ZM4.5125 19.2725L1.51251 19.2803L1.5125 19.2777L4.5125 19.2725ZM4.5 12.0615L1.5 12.0667L1.4978 10.7934L2.41218 9.90721L4.5 12.0615ZM9.41875 7.29453L7.33092 5.14023L7.33478 5.13651L9.41875 7.29453ZM14.5563 2.40052L12.9915 -0.159098L12.9988 -0.163549L13.0061 -0.167961L14.5563 2.40052ZM16.0625 2.00125L16.1496 -0.997484L16.1611 -0.997149L16.1727 -0.996723L16.0625 2.00125ZM18.35 18.5163L16.957 21.1733L16.9431 21.166L16.9292 21.1585L18.35 18.5163ZM18.9312 19.2906L21.8603 18.6421L21.863 18.6543L21.8656 18.6665L18.9312 19.2906ZM19 27.0944H22V30.0944H19V27.0944ZM13 27.0944V30.0944H10V27.0944H13ZM13 23.3256H9.99999L10 23.3165L13 23.3256ZM13.0563 19.2967L10.0998 18.7876L10.109 18.7342L10.1201 18.6812L13.0563 19.2967ZM13.8813 18.4437L14.6217 21.3509L14.5894 21.3591L14.5569 21.3666L13.8813 18.4437ZM16.125 18.4013L16.1412 15.4014L16.1453 15.4014L16.125 18.4013ZM15.5624 3.02018C15.3134 3.0839 15.1457 3.16468 15.0203 3.24557L11.7672 -1.79594C12.4668 -2.2474 13.2366 -2.57798 14.0751 -2.79254L15.5624 3.02018ZM15.0203 3.24557C15.2257 3.11309 15.3746 2.97424 15.2919 3.04611C15.2825 3.05422 15.2558 3.07783 15.2059 3.12326C15.1086 3.21176 14.9651 3.34478 14.7762 3.52176C14.4008 3.87346 13.8777 4.36927 13.2527 4.96496C12.0045 6.15475 10.3692 7.72496 8.73883 9.29737C7.10845 10.8698 5.48714 12.4404 4.26695 13.6309C3.65597 14.2271 3.1504 14.7232 2.79592 15.0751C2.61727 15.2525 2.48558 15.3847 2.40065 15.4716C2.38012 15.4926 2.36422 15.5091 2.35239 15.5214C2.34 15.5343 2.33526 15.5394 2.3361 15.5385C2.33672 15.5379 2.34064 15.5336 2.34702 15.5265C2.35286 15.5201 2.36514 15.5063 2.38143 15.4873C2.39531 15.4711 2.4268 15.434 2.4658 15.3835C2.48343 15.3608 2.59594 15.2176 2.70913 15.0142L-2.53413 12.0973C-2.41889 11.8901 -2.30278 11.7418 -2.28003 11.7124C-2.2359 11.6554 -2.19776 11.6102 -2.17574 11.5845C-2.13062 11.5318 -2.0893 11.4867 -2.06369 11.4591C-2.00915 11.4003 -1.9482 11.3371 -1.89135 11.2789C-1.77391 11.1587 -1.61639 11.0008 -1.43128 10.8171C-1.05821 10.4467 -0.537997 9.9363 0.0768018 9.33644C1.30817 8.13499 2.93843 6.55573 4.57367 4.97864C6.20891 3.40155 7.85328 1.82262 9.1129 0.621939C9.74188 0.0223885 10.2797 -0.487391 10.674 -0.856825C10.87 -1.04041 11.0385 -1.19685 11.1682 -1.31485C11.2317 -1.37267 11.2973 -1.43158 11.3574 -1.48375C11.3867 -1.5092 11.4269 -1.54373 11.4719 -1.58043C11.4888 -1.59424 11.6093 -1.69406 11.7672 -1.79594L15.0203 3.24557ZM2.71502 15.0035C2.85029 14.758 2.91134 14.5578 2.93121 14.4902C2.9579 14.3993 2.97161 14.3308 2.97851 14.292C2.99094 14.2223 3 14.144 3 14.0397H-3C-3 13.7599 -2.97219 13.4851 -2.92851 13.2398C-2.90033 13.0816 -2.81214 12.6018 -2.54002 12.1079L2.71502 15.0035ZM3 14.0397C3 13.6666 2.86293 13.0757 2.35286 12.582C1.85359 12.0988 1.29386 11.9955 0.9875 11.9955V17.9955C0.0748861 17.9955 -0.978589 17.7077 -1.82005 16.8933C-2.67231 16.0683 -3 14.9996 -3 14.0397H3ZM0.9875 11.9955C1.00832 11.9955 0.88507 11.9928 0.701526 12.0279C0.48649 12.069 0.27065 12.1449 0.0749502 12.2503C-0.0123764 12.2973 -0.078826 12.3411 -0.122473 12.3721C-0.164991 12.4023 -0.189442 12.4229 -0.192028 12.4251C-0.194497 12.4272 -0.183925 12.4183 -0.155583 12.3919C-0.127443 12.3657 -0.089628 12.3295 -0.0372997 12.2782L4.1623 16.5634C3.94825 16.7732 3.50137 17.2199 2.9188 17.5335C2.14193 17.9517 1.42898 17.9955 0.9875 17.9955V11.9955ZM-0.0403448 12.2812L0.365905 11.8819L4.57159 16.1612L4.16534 16.5604L-0.0403448 12.2812ZM5.46872 14.0071L5.49997 20.5042L-0.499965 20.5331L-0.531215 14.036L5.46872 14.0071ZM5.49997 20.5042L5.53122 26.9953L-0.468715 27.0242L-0.499965 20.5331L5.49997 20.5042ZM5.20409 25.6474L5.43534 26.1011L0.0896554 28.8258L-0.141595 28.372L5.20409 25.6474ZM5.43378 26.098C5.42435 26.0796 5.41815 26.0715 5.41796 26.0712C5.41769 26.0708 5.42023 26.0742 5.42546 26.0792C5.43067 26.0841 5.43499 26.0874 5.43663 26.0885C5.43834 26.0897 5.43321 26.0859 5.41906 26.0794L2.91844 31.5335C1.71726 30.9827 0.694964 30.01 0.0912243 28.8288L5.43378 26.098ZM5.41229 26.0763L5.83729 26.2699L3.35021 31.7301L2.92521 31.5365L5.41229 26.0763ZM4.59375 26H16V32H4.59375V26ZM16 26H27.4062V32H16V26ZM26.1627 26.2699L26.5877 26.0763L29.0748 31.5365L28.6498 31.7301L26.1627 26.2699ZM26.5809 26.0794C26.5668 26.0859 26.5617 26.0897 26.5634 26.0885C26.565 26.0874 26.5693 26.0841 26.5745 26.0792C26.5798 26.0742 26.5823 26.0708 26.582 26.0712C26.5818 26.0715 26.5757 26.0796 26.5662 26.098L31.9088 28.8288C31.305 30.01 30.2827 30.9827 29.0816 31.5335L26.5809 26.0794ZM26.5647 26.1011L26.7959 25.6474L32.1416 28.372L31.9103 28.8258L26.5647 26.1011ZM26.4688 26.9953L26.5 20.5042L32.5 20.5331L32.4687 27.0242L26.4688 26.9953ZM26.5 20.5042L26.5313 14.0071L32.5312 14.036L32.5 20.5331L26.5 20.5042ZM31.6341 11.8819L32.0403 12.2812L27.8347 16.5604L27.4284 16.1612L31.6341 11.8819ZM32.0373 12.2782C32.0896 12.3295 32.1274 12.3657 32.1556 12.3919C32.1839 12.4183 32.1945 12.4272 32.192 12.4251C32.1894 12.4229 32.165 12.4023 32.1225 12.3721C32.0788 12.3411 32.0124 12.2973 31.9251 12.2503C31.7294 12.1449 31.5135 12.069 31.2985 12.0279C31.1149 11.9928 30.9917 11.9955 31.0125 11.9955V17.9955C30.571 17.9955 29.8581 17.9517 29.0812 17.5335C28.4986 17.2199 28.0517 16.7732 27.8377 16.5634L32.0373 12.2782ZM31.0125 11.9955C30.7061 11.9955 30.1464 12.0988 29.6471 12.582C29.1371 13.0757 29 13.6666 29 14.0397H35C35 14.9996 34.6723 16.0683 33.82 16.8933C32.9786 17.7077 31.9251 17.9955 31.0125 17.9955V11.9955ZM29 14.0397C29 14.144 29.0091 14.2223 29.0215 14.292C29.0284 14.3308 29.0421 14.3993 29.0688 14.4902C29.0887 14.5578 29.1497 14.758 29.285 15.0035L34.54 12.1079C34.8121 12.6018 34.9003 13.0816 34.9285 13.2398C34.9722 13.4851 35 13.7599 35 14.0397H29ZM29.285 15.0035C29.4131 15.2361 29.5466 15.3997 29.5549 15.4103C29.5941 15.4598 29.6256 15.4962 29.6384 15.5109C29.654 15.5288 29.6657 15.5417 29.6711 15.5476C29.677 15.5541 29.6806 15.5579 29.6811 15.5585C29.6818 15.5592 29.6773 15.5544 29.6657 15.5424C29.6547 15.531 29.6398 15.5157 29.6207 15.4963C29.5418 15.4159 29.4187 15.2927 29.2505 15.1259C28.9168 14.795 28.4346 14.3217 27.8373 13.7387C26.6443 12.5742 25.0081 10.9875 23.2173 9.26021L27.3827 4.94169C29.1794 6.6747 30.8245 8.27003 32.0283 9.44512C32.6295 10.0319 33.1246 10.5178 33.4748 10.865C33.6487 11.0374 33.7943 11.1829 33.9016 11.2922C33.9535 11.345 34.0086 11.4018 34.0577 11.4541C34.0804 11.4783 34.1185 11.5193 34.1602 11.5672C34.1802 11.5901 34.2176 11.6334 34.2611 11.6885C34.2739 11.7047 34.4103 11.8725 34.54 12.1079L29.285 15.0035ZM23.2155 9.25842C19.6434 5.80706 18.0221 4.23599 17.145 3.46226C16.7048 3.07385 16.6156 3.03604 16.6726 3.06809C16.774 3.12505 16.9491 3.1748 16.5625 3.05232L18.375 -2.66739C18.5134 -2.62351 19.0471 -2.47999 19.6118 -2.16272C20.1321 -1.87036 20.6109 -1.4813 21.1143 -1.03715C22.1248 -0.145771 23.8941 1.57105 27.3845 4.94348L23.2155 9.25842ZM16.5702 3.05474C16.6013 3.0645 16.5638 3.05072 16.4435 3.0339C16.3331 3.01847 16.1962 3.00654 16.0488 3.00199C15.9011 2.99743 15.7681 3.00107 15.6649 3.00933C15.5499 3.01855 15.5298 3.02888 15.5845 3.01446L14.0531 -2.78682C14.7929 -2.98213 15.6064 -3.01453 16.234 -2.99515C16.8697 -2.97552 17.6603 -2.89174 18.3673 -2.66982L16.5702 3.05474ZM18.2806 -0.546759C18.9944 -0.229586 19.516 0.239138 20.1853 0.858124C20.9338 1.55035 22.224 2.79176 24.5711 5.0575L20.4039 9.37427C18.0322 7.08477 16.8005 5.90035 16.1116 5.26321C15.3434 4.55282 15.5118 4.78864 15.8444 4.93643L18.2806 -0.546759ZM24.5726 5.05897L29.5851 9.90458L25.4149 14.2184L20.4024 9.37281L24.5726 5.05897ZM30.5 12.0667L30.4875 19.2777L24.4875 19.2673L24.5 12.0563L30.5 12.0667ZM30.4875 19.2803C30.4782 22.8475 30.4735 24.6889 30.4541 25.6496C30.4452 26.0876 30.432 26.5013 30.3865 26.8371C30.3618 27.0196 30.3075 27.3483 30.1555 27.7182C29.9727 28.1625 29.7328 28.4553 29.676 28.5259L24.999 24.7676C24.975 24.7974 24.7638 25.0533 24.6063 25.4364C24.4794 25.7449 24.4468 25.988 24.4408 26.032C24.4328 26.0908 24.4454 26.0164 24.4553 25.5281C24.4734 24.6362 24.4781 22.8721 24.4875 19.2646L30.4875 19.2803ZM29.7287 28.4584C29.4735 28.7953 29.1145 29.1418 28.7739 29.3835L25.3011 24.4908C25.2297 24.5414 25.1824 24.5811 25.1627 24.598C25.1394 24.6179 25.1226 24.6336 25.1104 24.6454C25.0983 24.6571 25.0818 24.6737 25.0607 24.6968C25.0429 24.7162 25.0006 24.7634 24.9463 24.8351L29.7287 28.4584ZM28.7856 29.3752C28.5254 29.5617 28.13 29.7975 27.5643 29.9296C27.1994 30.0149 26.8457 30.0348 26.6317 30.0449C26.154 30.0676 25.3366 30.0734 23.9504 30.0823L23.9121 24.0824C25.3759 24.0731 26.0273 24.0668 26.3479 24.0517C26.4172 24.0484 26.4353 24.0461 26.4225 24.0475C26.4132 24.0484 26.3266 24.0572 26.1992 24.087C26.0557 24.1205 25.8657 24.1792 25.6554 24.2819C25.4527 24.381 25.3118 24.483 25.2894 24.499L28.7856 29.3752ZM23.9498 30.0823L21.0186 30.1004L20.9814 24.1005L23.9127 24.0824L23.9498 30.0823ZM18 27.1005V23.0231H24V27.1005H18ZM18 23.0231C18 21.0475 17.9981 20.0775 17.9832 19.5473C17.9757 19.28 17.9668 19.2231 17.9702 19.2488C17.9737 19.2756 17.9816 19.3247 17.9962 19.3862C18.0101 19.4446 18.023 19.4832 18.0192 19.4716L23.7308 17.6336C23.9188 18.2179 23.9615 18.6909 23.9808 19.3787C23.9988 20.0161 24 21.0969 24 23.0231H18ZM18.016 19.4614C18.0227 19.4826 18.0288 19.4835 18.0183 19.4734C18.0078 19.4633 17.9904 19.4518 17.9675 19.445L19.67 13.6917C21.5733 14.2549 23.1225 15.7201 23.734 17.6437L18.016 19.4614ZM17.9557 19.4415C17.9515 19.4403 18.0112 19.4576 18.0831 19.4686C18.1274 19.4755 18.1158 19.4701 17.9791 19.4642C17.6796 19.4511 17.1428 19.4474 16 19.4474V13.4474C17.9675 13.4474 18.7818 13.4248 19.6818 13.6952L17.9557 19.4415ZM16 19.4474C14.8572 19.4474 14.3204 19.4511 14.0209 19.4642C13.8842 19.4701 13.8726 19.4755 13.9169 19.4686C13.9888 19.4576 14.0485 19.4403 14.0443 19.4415L12.3182 13.6952C13.2182 13.4248 14.0325 13.4474 16 13.4474V19.4474ZM14.0325 19.445C14.0096 19.4518 13.9922 19.4633 13.9817 19.4734C13.9712 19.4835 13.9773 19.4826 13.984 19.4614L8.26598 17.6437C8.87749 15.7201 10.4267 14.2549 12.33 13.6917L14.0325 19.445ZM13.9808 19.4716C13.977 19.4832 13.9899 19.4446 14.0038 19.3862C14.0184 19.3247 14.0263 19.2756 14.0298 19.2488C14.0332 19.2231 14.0243 19.28 14.0168 19.5473C14.0019 20.0775 14 21.0475 14 23.0231H8C8 21.0969 8.00124 20.0161 8.01915 19.3787C8.03848 18.6909 8.0812 18.2179 8.26922 17.6336L13.9808 19.4716ZM14 23.0231V27.1005H8V23.0231H14ZM10.9814 30.1004L8.05018 30.0823L8.08732 24.0824L11.0186 24.1005L10.9814 30.1004ZM8.04965 30.0823C6.66343 30.0734 5.84601 30.0676 5.36825 30.0449C5.15431 30.0348 4.80061 30.0149 4.43574 29.9296C3.87001 29.7975 3.47459 29.5617 3.21445 29.3752L6.71055 24.499C6.68822 24.483 6.54726 24.381 6.34456 24.2819C6.13435 24.1792 5.94427 24.1205 5.80078 24.087C5.67344 24.0572 5.58677 24.0484 5.57747 24.0475C5.56466 24.0461 5.58284 24.0484 5.65206 24.0517C5.97274 24.0668 6.62407 24.0731 8.08785 24.0824L8.04965 30.0823ZM3.22605 29.3835C2.88548 29.1418 2.52652 28.7953 2.2713 28.4584L7.0537 24.8351C6.99941 24.7634 6.95705 24.7162 6.93935 24.6968C6.9182 24.6737 6.90171 24.6571 6.88958 24.6454C6.87742 24.6336 6.86059 24.6179 6.83727 24.598C6.81764 24.5811 6.77034 24.5414 6.69895 24.4908L3.22605 29.3835ZM2.32396 28.5259C2.26722 28.4553 2.02726 28.1625 1.84454 27.7182C1.69248 27.3483 1.63816 27.0196 1.61346 26.8371C1.56799 26.5013 1.55479 26.0876 1.54593 25.6496C1.52648 24.6889 1.52183 22.8475 1.51251 19.2803L7.51249 19.2646C7.52192 22.8721 7.52664 24.6362 7.5447 25.5281C7.55458 26.0164 7.56716 26.0908 7.5592 26.032C7.55324 25.988 7.5206 25.7449 7.39374 25.4364C7.23622 25.0533 7.02497 24.7974 7.00104 24.7676L2.32396 28.5259ZM1.5125 19.2777L1.5 12.0667L7.5 12.0563L7.5125 19.2673L1.5125 19.2777ZM2.41218 9.90721L7.33093 5.14023L11.5066 9.44883L6.58782 14.2158L2.41218 9.90721ZM7.33478 5.13651C8.69371 3.82421 9.95339 2.61404 10.8902 1.72103C11.3577 1.27538 11.7497 0.903944 12.0352 0.636831C12.1766 0.504513 12.3005 0.389717 12.3977 0.301592C12.4448 0.258875 12.4982 0.211042 12.55 0.166399C12.575 0.144867 12.6136 0.111927 12.6589 0.0755234C12.6689 0.0675335 12.8069 -0.0462551 12.9915 -0.159098L16.121 4.96013C16.2305 4.89317 16.3104 4.83424 16.3385 4.81341C16.3756 4.78578 16.4038 4.76341 16.4186 4.7515C16.448 4.72784 16.4667 4.71171 16.4676 4.71093C16.4712 4.7078 16.4602 4.71727 16.4276 4.74683C16.3654 4.80326 16.2684 4.89287 16.1345 5.01812C15.8694 5.26616 15.4931 5.62255 15.0302 6.0639C14.106 6.94489 12.8563 8.14544 11.5027 9.45256L7.33478 5.13651ZM13.0061 -0.167961C13.4048 -0.408562 13.8947 -0.662766 14.4997 -0.824448C15.1079 -0.986984 15.6652 -1.01155 16.1496 -0.997484L15.9754 4.99999C15.902 4.99786 15.8859 5.00071 15.9053 4.99898C15.9305 4.99672 15.9827 4.9898 16.0487 4.97214C16.1146 4.95455 16.1612 4.93512 16.1801 4.92643C16.1936 4.92026 16.1743 4.92802 16.1064 4.969L13.0061 -0.167961ZM16.1727 -0.996723C16.4359 -0.987049 16.7979 -0.970263 17.1854 -0.896049C17.6242 -0.812014 17.9709 -0.680204 18.248 -0.560987L15.877 4.95066C15.8382 4.93396 15.8499 4.94044 15.8893 4.95349C15.9103 4.96047 15.9369 4.96857 15.9678 4.97665C15.9987 4.98477 16.0288 4.9915 16.0568 4.99686C16.1126 5.00754 16.1428 5.00942 16.1268 5.00807C16.1184 5.00735 16.101 5.00605 16.071 5.00443C16.041 5.0028 16.0026 5.00108 15.9523 4.99923L16.1727 -0.996723ZM19.743 15.8593C20.8668 16.4485 21.6044 17.4863 21.8603 18.6421L16.0022 19.9391C16.1081 20.4173 16.4332 20.8986 16.957 21.1733L19.743 15.8593ZM21.8656 18.6665C21.9397 19.015 21.9527 19.4189 21.9576 19.533C21.9678 19.7671 21.9755 20.0649 21.9816 20.4147C21.9937 21.1183 22 22.0999 22 23.3438H16C16 22.1133 15.9938 21.1713 15.9825 20.5183C15.9768 20.1898 15.9701 19.951 15.9633 19.7925C15.9598 19.7119 15.957 19.6703 15.956 19.657C15.9513 19.5975 15.9573 19.7286 15.9969 19.9148L21.8656 18.6665ZM22 23.3438V27.0944H16V23.3438H22ZM19 30.0944H16V24.0944H19V30.0944ZM16 30.0944H13V24.0944H16V30.0944ZM10 27.0944V23.3256H16V27.0944H10ZM10 23.3165C10.0032 22.274 10.011 21.2919 10.0214 20.548C10.0265 20.1774 10.0324 19.8578 10.0389 19.6163C10.042 19.4972 10.0457 19.3847 10.05 19.2896C10.0502 19.2871 10.0578 19.0311 10.0998 18.7876L16.0127 19.8057C16.0293 19.7095 16.0368 19.6361 16.0388 19.6156C16.0418 19.5856 16.0434 19.5644 16.0439 19.5572C16.0449 19.543 16.0447 19.5426 16.0438 19.5636C16.042 19.6036 16.0395 19.6729 16.0367 19.7766C16.0313 19.981 16.0258 20.2716 16.0208 20.6314C16.0108 21.3485 16.0031 22.3083 16 23.3347L10 23.3165ZM10.1201 18.6812C10.4372 17.1681 11.6011 15.8916 13.2056 15.5208L14.5569 21.3666C15.3239 21.1893 15.8503 20.5904 15.9924 19.9122L10.1201 18.6812ZM13.1408 15.5365C13.436 15.4613 13.7092 15.4439 13.7198 15.443C13.8125 15.4354 13.9065 15.4303 13.9879 15.4266C14.1549 15.419 14.3569 15.4134 14.5723 15.4094C15.0078 15.4013 15.5637 15.3983 16.1412 15.4014L16.1088 21.4013C15.5676 21.3984 15.061 21.4014 14.684 21.4084C14.4931 21.4119 14.3514 21.4162 14.2613 21.4203C14.2142 21.4225 14.2014 21.4237 14.2119 21.4228C14.2167 21.4224 14.2461 21.42 14.2904 21.4144C14.31 21.4119 14.4461 21.3956 14.6217 21.3509L13.1408 15.5365ZM16.1453 15.4014C17.012 15.4073 17.6038 15.4132 17.9972 15.4332C18.3058 15.4489 19.0336 15.4777 19.7708 15.8741L16.9292 21.1585C17.0514 21.2242 17.185 21.2831 17.3266 21.3305C17.4605 21.3753 17.5707 21.3996 17.6418 21.4126C17.7593 21.4341 17.8087 21.4314 17.6919 21.4254C17.591 21.4203 17.4276 21.4154 17.1573 21.4113C16.892 21.4073 16.5512 21.4043 16.1047 21.4013L16.1453 15.4014Z" fill="#00A7E3" mask="url(#path-1-inside-1_384_1127)"/>
</svg>
